# xmcd
#
# Track frame offsets: 
#        150
#        58706
#        116065
#        140603
#
# Disc length: 2270 seconds
#
# Revision: 0
# Processed by: cddbd v1.5.2PL0 Copyright (c) Steve Scherf et al.
# Submitted via: ExactAudioCopy v1.0b3
#
DISCID=3808dc04
DTITLE=The Allman Brothers Band - 5-13-09 - Fox Theater, Oakland - 40t
DTITLE=h Anniversary Tour - Disc 2 of 3
DYEAR=2009
DGENRE=blues
TTITLE0=Revival
TTITLE1=The Same Thing
TTITLE2=The Night They Drove Old Dixie Down
TTITLE3=Leave My Blues At Home
EXTD=
EXTT0=
EXTT1=
EXTT2=
EXTT3=
PLAYORDER=
